<?xml version="1.0" encoding="utf-8"?>
<!-- Generator: Adobe Illustrator 25.0.0, SVG Export Plug-In . SVG Version: 6.00 Build 0)  -->
<svg version="1.1" id="Layer_1" xmlns="http://www.w3.org/2000/svg" xmlns:xlink="http://www.w3.org/1999/xlink" x="0px" y="0px"
	 viewBox="0 0 2730 1821" style="enable-background:new 0 0 2730 1821;" xml:space="preserve">
<style type="text/css">
	.st0{fill:none;}
	.st1{fill:#EBEBEB;}
	.st2{fill:#E0E0E0;}
	.st3{fill:#F5F5F5;}
	.st4{fill:#DC143C;}
	.st5{fill:#263238;}
	.st6{fill:#465A63;}
	.st7{opacity:0.07;}
	.st8{fill:#FBD1C6;}
	.st9{fill:#FBDBBF;}
	.st10{fill:#FFFFFF;}
	.st11{opacity:0.05;}
</style>
<g>
	<rect class="st0" width="2730" height="1821"/>
</g>
<g>
	<g>
		<g>
			<g>
				<path class="st1" d="M2230.8,1566.47c0,0-175.21-230.2,84.96-407.3C2472.64,1417.42,2230.8,1566.47,2230.8,1566.47z"/>
			</g>
		</g>
		<g>
			<g>
				
					<rect x="2108.49" y="1361.15" transform="matrix(0.2041 -0.9789 0.9789 0.2041 475.072 3310.0049)" class="st2" width="329.57" height="3.35"/>
			</g>
		</g>
		<g>
			<g>
				<path class="st2" d="M2258.12,1443.16c0.01-0.01,0.14-0.18,0.21-0.5l-3.28-0.68c0.22-1.05,0.45-2.14,36.8-27.07
					c17.7-12.14,35.57-24.14,35.75-24.26l1.87,2.78C2302.05,1411.84,2260.42,1440.28,2258.12,1443.16z"/>
			</g>
		</g>
		<g>
			<g>
				
					<rect x="2243.32" y="1298.07" transform="matrix(0.78 -0.6258 0.6258 0.78 -344.6386 1699.6512)" class="st2" width="3.35" height="83.83"/>
			</g>
		</g>
		<g>
			<g>
				
					<rect x="2282.5" y="1275.87" transform="matrix(0.7737 -0.6335 0.6335 0.7737 -287.481 1750.1875)" class="st2" width="47.81" height="3.35"/>
			</g>
		</g>
		<g>
			<g>
				<path class="st2" d="M2237.47,1227.45c-107,123.62-55.28,255.06-24.24,311.1c6-7.13,11.19-14.96,15.37-23.28
					c8.65-17.21,13.13-36.15,18.21-54.73c3.64-13.29,7.63-26.56,9.24-40.25c1.31-11.16,5.84-33.76,5.55-45
					C2260.19,1321.72,2253.61,1278.15,2237.47,1227.45z"/>
			</g>
		</g>
	</g>
	<g>
		<g>
			<g>
				<path class="st3" d="M2195.28,1554.21c0,0,126.54-206.45-42.19-421.05C2027.45,1375.19,2195.28,1554.21,2195.28,1554.21z"/>
			</g>
		</g>
		<g>
			<g>
				
					<rect x="2174.85" y="1175.88" transform="matrix(0.995 -0.0997 0.0997 0.995 -123.6449 223.7487)" class="st2" width="3.35" height="345.83"/>
			</g>
		</g>
		<g>
			<g>
				
					<rect x="2164.26" y="1399.73" transform="matrix(0.6587 -0.7524 0.7524 0.6587 -334.0448 2116.6013)" class="st2" width="3.35" height="53.53"/>
			</g>
		</g>
		<g>
			<g>
				
					<rect x="2153.3" y="1291.41" transform="matrix(0.6272 -0.7788 0.7788 0.6272 -222.4582 2169.3467)" class="st2" width="3.35" height="51.32"/>
			</g>
		</g>
		<g>
			<g>
				
					<rect x="2174.7" y="1370.94" transform="matrix(0.7728 -0.6346 0.6346 0.7728 -371.2021 1708.2798)" class="st2" width="51.48" height="3.35"/>
			</g>
		</g>
		<g>
			<g>
				
					<rect x="2162.73" y="1258.21" transform="matrix(0.6518 -0.7584 0.7584 0.6518 -196.2048 2092.4189)" class="st2" width="35.9" height="3.35"/>
			</g>
		</g>
	</g>
	<g>
		<rect x="2129.66" y="1485.81" class="st1" width="212.96" height="233.01"/>
	</g>
</g>
<g>
	<g>
		<rect x="1833.46" y="425.96" class="st3" width="316.87" height="316.87"/>
	</g>
	<g>
		<rect x="2159.1" y="425.96" class="st3" width="316.87" height="316.87"/>
	</g>
	<g>
		<rect x="2159.1" y="752.83" class="st3" width="316.87" height="316.87"/>
	</g>
	<g>
		<rect x="1833.46" y="752.83" class="st3" width="316.87" height="316.87"/>
	</g>
	<g>
		<path class="st1" d="M2055.71,425.96c0,0,7.54,192.55-172.17,316.87h-50.07V425.96H2055.71z"/>
	</g>
	<g>
		<path class="st1" d="M1881.55,752.83c0,0,58.1,100.15,58.1,316.87h-106.19V752.83H1881.55z"/>
	</g>
	<g>
		<path class="st1" d="M2253.73,425.96c0,0-7.54,192.55,172.17,316.87h50.07V425.96H2253.73z"/>
	</g>
	<g>
		<path class="st1" d="M2427.89,752.83c0,0-58.1,100.15-58.1,316.87h106.19V752.83H2427.89z"/>
	</g>
</g>
<g>
	<g>
		<g>
			<g>
				<g>
					<g>
						<path class="st4" d="M762.22,660.52c-22.71,6.54-44.5,8.24-80.56-6.22c-10.54-4.23-27.9-15.03-32.89-25.25
							c-4.98-10.21-3.34-21.73,6.27-27.79c10.7-6.75,14.72-2.17,26.63,2.1c11.91,4.27,19.96,1.07,23.33-5.56
							c6.04-11.89-10.01-25.19-22.31-30.35s-27.12-8.23-33.85-19.74c-8.77-14.99,6.47-35.28,23.4-31.42
							c11,2.51,22.27,10.07,29.21,1.18c6.32-8.11-1.28-20.15-9.6-26.27c-8.32-6.13-22.32-20.66-15.83-40.47
							c4.06-12.39,19.52-15.94,31.98-7.4c12.16,8.33,19.59,25.87,24.1,39.59c4.11,12.51,15.26,19.47,25.03,11.8
							c5.26-4.13,6.31-13.26,10.31-18.61c7.11-9.51,24.13-2.17,26.82,9.4c2.69,11.57-3.81,23.15-10.68,32.84
							c-6.87,9.69-14.7,19.78-15.13,31.65c-0.42,11.87,11.34,24.59,22.27,19.96c8.68-3.68,12.55-16.1,21.94-16.87
							c11.19-0.91,15.15,14.73,13.48,25.83C820.57,616.03,784.93,653.98,762.22,660.52z"/>
					</g>
				</g>
			</g>
		</g>
		<g>
			<path class="st5" d="M770.49,716.49c-3.08-20.79-8.11-45.3-14.93-72.84l-0.08-0.31l-65.68-11.83l0.37-2.07l64.75,11.66
				l-0.19-0.75c-6.39-25.46-14.3-53.53-23.51-83.44l-0.08-0.26l-59.27-16.27l0.56-2.03l57.97,15.91l-0.27-0.87
				c-15.94-51.43-30.06-89.99-30.15-90.23l-0.17-0.4l1.95-0.8l0.17,0.4c0.08,0.19,12.5,33.78,27.55,81.53l0.24,0.76L767.77,509
				l1.44,1.54l-38.79,36.35l0.09,0.3c9.31,29.7,17.4,57.86,24.06,83.69l0.19,0.75l45.08-35.99l1.31,1.64l-45.82,36.58l0.08,0.31
				c7.93,31.11,13.7,58.71,17.16,82.03l0.06,0.43l-2.08,0.31L770.49,716.49z"/>
		</g>
		<g>
			<path class="st1" d="M830.41,799.87c2.83,0,5.3-1.97,5.86-4.74c1.33-6.5,2.04-13.31,2.04-20.31c0-45.96-30.37-83.22-67.83-83.22
				s-67.83,37.26-67.83,83.22c0,7.01,0.71,13.81,2.04,20.31c0.57,2.77,3.04,4.74,5.86,4.74H830.41z"/>
		</g>
	</g>
	<g>
		<rect x="324.03" y="799.87" class="st3" width="617.39" height="31.31"/>
	</g>
	<g>
		<rect x="452.71" y="684.14" class="st1" width="29.82" height="115.73"/>
	</g>
	<g>
		<rect x="485.52" y="664.14" class="st1" width="29.82" height="135.73"/>
	</g>
	<g>
		<rect x="419.89" y="672.14" class="st1" width="29.82" height="127.73"/>
	</g>
	<g>
		
			<rect x="530.25" y="682.3" transform="matrix(0.9773 -0.2118 0.2118 0.9773 -144.3748 132.23)" class="st1" width="29.82" height="115.73"/>
	</g>
</g>
<g>
	<rect x="287.21" y="1718.82" class="st5" width="2155.59" height="3"/>
</g>
<g>
	<g>
		<g>
			<g>
				<polygon class="st5" points="2011.67,1514.08 1880.34,1512.11 1880.34,1474.45 1893.53,1474.45 1893.53,1499.12 
					2001.11,1500.73 2066.75,1203.1 2038.64,1193.55 2042.88,1181.07 2082.16,1194.41 				"/>
			</g>
		</g>
		<g>
			<rect x="1738.14" y="1453.15" class="st5" width="30.52" height="248.08"/>
		</g>
		<g>
			<path class="st6" d="M1975.96,1333.04l-30.23-10.31c-8.77-2.99-13.06-13.7-9.57-23.93l63.23-185.43
				c3.49-10.22,13.43-16.09,22.2-13.1l30.23,10.31c8.77,2.99,13.06,13.7,9.57,23.93l-63.24,185.43
				C1994.68,1330.16,1984.74,1336.03,1975.96,1333.04z"/>
		</g>
		<g class="st7">
			<path d="M2051.83,1110.58l-30.23-10.31c-8.77-2.99-18.71,2.87-22.2,13.1l-63.23,185.43c-3.49,10.23,0.8,20.94,9.57,23.93
				l8.95,3.05c14.38-40.27,28.76-80.55,43.14-120.82c3.43-9.62,6.89-19.27,11.69-28.29c6.88-12.92,16.42-24.28,27.06-34.33
				c6.61-6.25,13.68-12.03,21.31-16.99c1.38-0.9,2.78-1.77,4.19-2.66C2060.77,1117.05,2057.14,1112.39,2051.83,1110.58z"/>
		</g>
		<g>
			<path class="st5" d="M1616.25,1382.63c0,0-190.7,47.03-256.49,219c0,0-96.56-30.51-88.91-72.86s62.32-54.38,78.89,20.53
				c21.67-49.03,72.24-139.14,203.3-193.1L1616.25,1382.63z"/>
		</g>
		<g>
			<path class="st6" d="M1914.26,1489.83h-317.06c-10.8,0-19.56-8.76-19.56-19.56v-43.03c0-10.8,8.76-19.56,19.56-19.56h317.06
				c10.8,0,19.56,8.76,19.56,19.56v43.03C1933.82,1481.07,1925.06,1489.83,1914.26,1489.83z"/>
		</g>
		<g class="st7">
			<path d="M1914.26,1407.68h-317.06c-4.93,0-9.42,1.84-12.86,4.85c35.07,9.26,70.14,18.52,105.22,27.78
				c-18.03,13.12-34.51,28.36-49,45.3c-1.16,1.36-2.29,2.77-3.34,4.22h47.81c2.95-2.26,5.9-4.5,8.9-6.62
				c45.38-32.14,87.8-40.23,143.37-42.21c14.15-0.5,44.55,1.85,58.48-0.7c13.25-2.42,26.09-6.92,38.06-13.1
				C1933.79,1416.41,1925.04,1407.68,1914.26,1407.68z"/>
		</g>
		<g>
			<path class="st5" d="M1516.91,1291.35c-6.11,76.86,16.16,104.38,154.03,122.3c234.75,30.52,242.45-19.77,244.02-24.11
				C1916.54,1385.2,1516.91,1291.35,1516.91,1291.35z"/>
		</g>
		<g>
			<g>
				<g>
					<g>
						<g>
							<g>
								<g>
									<g>
										<g>
											<g>
												<path class="st8" d="M2013.77,1117.79c16.66-61.56,83.27-353.63-124.01-420.1
													c-291.41-93.45-336.31,314.91-336.31,314.91C1646.47,1097.63,2006.87,1123.78,2013.77,1117.79z"/>
											</g>
										</g>
									</g>
								</g>
							</g>
						</g>
					</g>
				</g>
			</g>
			<g>
				<path class="st5" d="M1800.61,999.22c-0.41-6.92-2.77-13.54-6.05-19.39c-3.31-5.86-7.48-11.1-12.14-15.75
					c-4.66-4.66-9.78-8.79-15.31-12.38c-2.76-1.8-5.62-3.47-8.62-4.97c-3-1.51-6.13-2.83-9.6-3.84c-3.27-0.91-6.35-1.72-9.64-2.32
					c-3.26-0.57-6.56-1.01-9.92-1.24c-3.35-0.24-6.76-0.18-10.17,0.12c-3.41,0.31-6.84,0.86-10.19,1.83
					c-3.34,0.96-6.65,2.2-9.75,3.87c-3.08,1.68-6.02,3.64-8.63,5.96c-5.28,4.57-9.28,10.33-11.97,16.4
					c-0.85,1.93,0.02,4.19,1.95,5.04c1.65,0.73,3.55,0.2,4.59-1.19l0.05-0.07c3.52-4.66,7.46-8.76,11.97-11.86
					c4.49-3.13,9.49-5.29,14.8-6.51c2.66-0.58,5.38-1.03,8.16-1.22c2.78-0.2,5.6-0.18,8.44-0.06c2.85,0.15,5.71,0.48,8.58,0.94
					c2.84,0.41,5.82,1.02,8.55,1.67c2.52,0.65,5.15,1.7,7.75,2.88c2.6,1.18,5.17,2.55,7.67,4.05c4.99,3.01,9.76,6.49,14.11,10.38
					c4.32,3.92,8.26,8.23,11.39,13c3.14,4.75,5.47,9.96,6.38,15.43l0.01,0.05c0.34,2.07,2.3,3.48,4.37,3.13
					C1799.37,1002.88,1800.72,1001.14,1800.61,999.22z"/>
			</g>
			<g>
				<g>
					<path class="st5" d="M1922.46,883.42c-4.49-4.16-8.99-8.02-13.03-12.3c-2.08-2.07-4.07-4.19-5.91-6.43
						c-1.99-2.11-3.68-4.44-5.44-6.69c-3.56-4.51-6.36-9.44-9.3-14.27c-2.91-4.83-5.81-9.86-8.93-14.76l-0.23-0.36
						c-0.86-1.35-2.7-1.78-4.11-0.96c-0.83,0.48-1.33,1.31-1.42,2.16c-0.68,6.88,0.99,13.13,3.58,19.08
						c2.63,5.92,6.43,11.27,10.54,16.28c4.31,4.87,8.91,9.51,14.24,13.28c5.19,3.91,10.92,7.08,16.86,9.64
						c1.48,0.64,3.23,0.01,3.89-1.4c0.52-1.1,0.23-2.36-0.63-3.16L1922.46,883.42z"/>
				</g>
			</g>
			<g>
				<g>
					<path class="st5" d="M1656.68,803.4c6.47,1.18,13.16,1.71,19.87,1.23c6.73-0.28,13.38-1.81,19.86-3.77
						c6.39-2.21,12.68-5,18.15-8.95c5.46-3.99,10.18-8.8,12.99-15.29c0.63-1.45-0.1-3.11-1.62-3.71c-0.91-0.36-1.89-0.26-2.67,0.19
						l-0.41,0.24l-15.24,8.82c-5.05,2.78-10.09,5.62-15.59,7.63c-2.74,0.99-5.46,2.12-8.34,2.82l-4.27,1.27l-4.38,0.97
						c-2.9,0.83-5.92,1.05-8.92,1.71c-3.02,0.45-6.08,0.77-9.19,1.31l-0.23,0.04c-1.6,0.28-2.65,1.73-2.36,3.26
						C1654.57,802.32,1655.53,803.19,1656.68,803.4z"/>
				</g>
			</g>
			<g>
				<g>
					<path class="st5" d="M1849.13,898c-4.98,15.56-2.17,30.17,6.27,32.65c8.44,2.47,19.32-8.13,24.3-23.69
						c4.98-15.56,2.17-30.17-6.27-32.65C1864.99,871.83,1854.11,882.44,1849.13,898z"/>
				</g>
			</g>
			<g>
				<g>
					<path class="st5" d="M1670.86,844.02c-4.98,15.56-2.17,30.17,6.27,32.65c8.44,2.47,19.32-8.13,24.3-23.69
						c4.98-15.56,2.17-30.17-6.27-32.65C1686.72,817.86,1675.84,828.46,1670.86,844.02z"/>
				</g>
			</g>
			<g>
				<g>
					<g>
						<g>
							<g>
								<g>
									<g>
										<g>
											<g>
												<g>
													<g>
														<path class="st5" d="M1646.12,509.38c0,0-140.11,268.53,318.23,314.03l-10.76,94.07c0,0,46.33-27.18,48.23,16.13
															c2.19,49.87-43.53,19.77-43.53,19.77s19.74,114.26,55.48,164.4c7.51-5.71,238.1-393.23,35.9-407.87
															c0.64-11.43-8.23-90.62-117.92-129.58C1765.84,521.41,1735.57,650.5,1646.12,509.38z"/>
													</g>
												</g>
											</g>
										</g>
									</g>
								</g>
							</g>
						</g>
					</g>
				</g>
			</g>
		</g>
		<g>
			<g>
				<g>
					<g>
						<g>
							<g>
								<g>
									<g>
										<g>
											<g>
												<path class="st4" d="M1553.46,1012.6l-36.55,278.75c0,0,148.19,72,398.05,98.19l98.81-271.75
													C2013.77,1117.79,1697.22,1097.4,1553.46,1012.6z"/>
											</g>
										</g>
									</g>
								</g>
							</g>
						</g>
					</g>
				</g>
			</g>
		</g>
		<g>
			<path class="st8" d="M2013.77,1117.79l-24.07,46.75c156.23,157.16-105.28,184.94-107.45,185.17c-9.88,1.06-11.12,9.5-8.92,13.65
				c1.43,2.7,5.14,3.89,9.52,3.47c-2.97,3.07-4.17,6.59-2.73,9.29c1.43,2.7,5.14,3.89,9.52,3.47c-2.97,3.07-4.17,6.59-2.73,9.29
				c1.43,2.7,5.14,3.89,9.52,3.47c-2.97,3.07-4.17,6.59-2.73,9.29c2.2,4.14,9.76,4.76,16.89,1.38l0.03,0.06
				C2248.61,1322.15,2013.77,1117.79,2013.77,1117.79z"/>
		</g>
		<g>
			<g>
				<path class="st4" d="M1989.7,1164.54l24.07-46.75c0,0,20.7,18.01,40.96,45.46l-41.35,28.12
					C2006.89,1182.88,1999.05,1173.94,1989.7,1164.54z"/>
			</g>
		</g>
		<g>
			<g>
				<g>
					<path class="st8" d="M1553.46,1012.6l-5.67,52.98c-276.82-130.35-111.11-344.3,22.61-383.05
						c35.45-10.27,75.16-2.71,72.77,13.48c-1.57,10.61-34.24-11.49-60.42-1.15c4.41,0.14,7.89,1.78,8.88,4.63
						c0.99,2.85-0.76,6.18-4.19,8.84c4.41,0.14,7.89,1.78,8.88,4.63c0.99,2.85-0.76,6.18-4.19,8.84c4.41,0.14,7.89,1.78,8.88,4.63
						c1.52,4.38,0.85,7.76-10.97,12.43C1382.33,820.86,1438.26,960.69,1553.46,1012.6z"/>
				</g>
			</g>
		</g>
		<g>
			<g>
				<path class="st4" d="M1553.46,1012.6l-5.67,52.98c-16.89-7.95-32.11-16.22-45.82-24.74l32.07-38.15
					C1540.29,1006.26,1546.77,1009.59,1553.46,1012.6z"/>
			</g>
		</g>
		<g>
			<path class="st5" d="M1870.06,1718.82h-227.95l0,0c0-19.43,15.75-35.17,35.17-35.17h157.6
				C1854.31,1683.65,1870.06,1699.39,1870.06,1718.82L1870.06,1718.82z"/>
		</g>
		<g>
			<g>
				<path class="st9" d="M1933.79,1555.64c0.02-0.62,0.01-1.22-0.01-1.76C1933.75,1554.45,1933.75,1555.04,1933.79,1555.64z"/>
			</g>
		</g>
		<g>
			<path class="st5" d="M1803.87,1417.8c0,0-184.78,45.57-253.31,211.03c-1.86,4.49-6.84,6.78-11.4,5.11
				c-23.18-8.51-86.96-35.28-80.69-70c7.65-42.36,62.32-54.38,78.89,20.53c21.67-49.03,72.23-139.14,203.3-193.1L1803.87,1417.8z"/>
		</g>
	</g>
</g>
<g>
	<g>
		<g>
			<g>
				<g>
					<rect x="468.92" y="1238.42" class="st6" width="1254.56" height="41.99"/>
				</g>
				<g>
					<rect x="1275.29" y="1238.45" class="st5" width="448.19" height="41.99"/>
				</g>
			</g>
		</g>
		<g>
			<polygon class="st6" points="481.51,1718.82 468.92,1718.82 528.92,1280.3 571.51,1280.3 			"/>
		</g>
		<g>
			<polygon class="st6" points="1262.7,1718.82 1275.29,1718.82 1215.29,1280.3 1172.7,1280.3 			"/>
		</g>
		<g>
			<polygon class="st6" points="1680.89,1718.82 1693.48,1718.82 1633.48,1280.3 1590.89,1280.3 			"/>
		</g>
		<g>
			<polygon class="st5" points="899.69,1718.82 887.11,1718.82 947.11,1280.3 989.69,1280.3 			"/>
		</g>
	</g>
	<g>
		<g>
			<g>
				<path class="st2" d="M1384.36,1221.55h-247.54v8.85c0,4.44,3.6,8.05,8.05,8.05h231.44c4.44,0,8.05-3.6,8.05-8.05V1221.55z"/>
			</g>
		</g>
		<g>
			<g>
				<path class="st1" d="M791.15,1238.45h360.56c11.31,0,19.12-9.17,17.46-20.47l-32.81-223.15c-1.66-11.31-12.18-20.47-23.48-20.47
					H752.32c-11.31,0-19.12,9.17-17.46,20.47l32.81,223.15C769.33,1229.28,779.84,1238.45,791.15,1238.45z"/>
			</g>
		</g>
		<g>
			<g>
				<path class="st10" d="M921.83,1101.61c2.39,16.28,17.53,29.48,33.82,29.48c16.28,0,27.54-13.2,25.15-29.48
					c-2.39-16.28-17.53-29.48-33.82-29.48S919.43,1085.33,921.83,1101.61z"/>
			</g>
		</g>
		<g>
			<g>
				<path class="st2" d="M767.66,1217.98l-32.81-223.15c-1.66-11.31,6.16-20.47,17.46-20.47h64.64
					c41.29,125.03,140.56,223.66,265.98,264.1H791.15C779.84,1238.45,769.33,1229.28,767.66,1217.98z"/>
			</g>
		</g>
	</g>
</g>
<g>
	<polygon class="st1" points="1531.43,295.64 1409.43,264.9 1389.43,191.65 1340.57,191.65 1320.57,264.9 1198.57,295.64 
		1180.57,340.38 1549.43,340.38 	"/>
	<g>
		<path class="st1" d="M1365,383.72c-24.45,0-44.34-19.89-44.34-44.34h5c0,21.69,17.65,39.34,39.34,39.34s39.34-17.65,39.34-39.34h5
			C1409.34,363.83,1389.45,383.72,1365,383.72z"/>
	</g>
	<g>
		<rect x="1362.5" class="st1" width="5" height="199.68"/>
	</g>
</g>
<g>
	<g>
		<path class="st4" d="M1238.51,714.33c-33.17,2.42-62.75,30.3-60.91,64.8c1.71,31.89,29.24,59.29,65.16,56.67
			c34.83-2.54,58.19-32.59,56.32-67.62C1297.13,731.58,1268.91,712.11,1238.51,714.33z"/>
	</g>
	<g>
		<path class="st4" d="M1387.02,553.25c-4.33-81.04-61.09-135.69-145.66-129.52c-65.79,4.8-123.01,55.16-125.33,115.69l74.47,22.92
			c0.32-25.22,20.3-46.1,46.27-47.99c24.32-1.77,43.46,13.62,44.73,37.15c1.34,25.11-20.43,43.48-55.81,46.07
			c-11.05,0.81-24.43-0.32-39.58-3.41l5.55,104.05l87.71,0.42l-2.72-30.24C1335.24,664.1,1389.96,608.15,1387.02,553.25z"/>
	</g>
	<g class="st11">
		<path d="M1387.02,553.25c-3.38-63.37-38.82-110.6-94.55-125.24c10.23,5.21,19.68,11.78,27.87,19.97
			c26.71,26.72,35.78,79.33,25.16,115.59c-10.62,36.26-39.85,55.17-75.65,67.24c-8.45,2.85-17.12,5.77-20.23,10.4
			c-2.95,4.39-0.37,20.42-1.88,28.79c-2.31,12.79-9.65,20.45-30.24,23.81c-8.62,1.41-17.3,1.41-26.04,0.53l0.21,3.86l87.71,0.42
			l-2.72-30.24C1335.24,664.1,1389.96,608.15,1387.02,553.25z"/>
	</g>
	<g class="st11">
		<path d="M1238.51,714.33c-0.5,0.04-1.01,0.1-1.51,0.15c15.26,2.95,29.34,12.8,35.96,26.85c3.07,6.52,4.51,13.74,4.66,20.94
			c0.29,13.76-4.26,27.7-13.2,38.16c-8.94,10.46-22.3,17.21-36.06,17.47c-12,0.22-23.82-4.38-33.37-11.65
			c-6.17-4.7-11.42-10.46-15.9-16.8c6.38,27.24,31.69,48.7,63.67,46.36c34.83-2.54,58.19-32.59,56.32-67.62
			C1297.13,731.58,1268.91,712.11,1238.51,714.33z"/>
	</g>
</g>
</svg>
